<?xml version="1.0" encoding="utf-8"?>
<!-- Generator: Adobe Illustrator 25.2.0, SVG Export Plug-In . SVG Version: 6.00 Build 0)  -->
<svg version="1.1" id="Layer_1" xmlns="http://www.w3.org/2000/svg" xmlns:xlink="http://www.w3.org/1999/xlink" x="0px" y="0px"
	 viewBox="0 0 357.9 116.7" style="enable-background:new 0 0 357.9 116.7;" xml:space="preserve">
<style type="text/css">
	.st0{fill:#007934;}
	.st1{fill:#002B49;}
</style>
<g>
	<g>
		<path class="st0" d="M23.7,71.3c6.6-7.3,13.4-12.9,18.5-16.7C29.8,29,47.7,9.5,47.9,9.3l1-1.1l0.6,1.3c7.8,18,3.1,33.6,0.6,39.7
			c0.5-0.3,0.8-0.5,0.8-0.5C75.4,31.4,81.3,11.4,82.7,2.6H2.6v107.3C11.2,87,23.6,71.5,23.7,71.3"/>
		<path class="st0" d="M82.7,19.2C75.8,33.3,69.2,38.7,69,38.9c-6.3,5.6-26.2,20.5-26.4,20.7c-5.8,4-11,9.3-15.1,14
			c5.1-2.1,23.3-8.4,44.4,0.6l1.5,0.6l-1.2,1.1c-0.2,0.2-22,18.3-50,4.6c0,0-3.2,4.5-3.2,4.5c-8.2,13.8-10.2,24.4-10.7,29.5h78.6
			V10.5C85,14.4,83.1,18.4,82.7,19.2"/>
	</g>
	<g>
		<path class="st1" d="M123.9,61.6c5.2,0,7.9-0.1,12-1.3c4-1.3,7.6-2.6,12.8-7.6c5.3-4.9,7.1-11.5,7.1-15.6v-0.1
			c0-6.7-2.7-12.7-8.2-17.7c-6.9-6.1-16.5-6.9-21.9-6.9c-3.7,0-6.4,0.1-11.3,0.2c-4.1,0.1-7.6,0.2-10.4,0.2l0.1,1.1
			c0,1.1,0.1,1.5,0.3,1.6c3.5,0.5,4.1,1.3,4.2,2.4c0.1,0.9,0.1,2.6,0.1,10.4c0,9.1,0.1,21.7-0.3,27.5c-0.1,1.3-0.9,1.8-4,3
			c-0.1,0.3,0,1.9,0,2.4c1.7-0.1,4.4-0.1,6.8-0.1C112.6,61.3,119.9,61.6,123.9,61.6z M117.7,18.2c0.1-0.7,0.3-1.3,0.7-1.5
			c0.7-0.7,4.6-1.3,6.1-1.3h0.1c3.3,0,8.9,0.7,13.7,4.6c3.7,2.9,7.3,8.5,7.3,16.5c0,7.7-3.1,15-9.2,18.9c-4.5,2.8-8.4,3.6-11.5,3.6
			c-1.8,0-3.7-0.4-5.4-1c-0.7-0.2-0.9-0.5-1-1.1c-1.1-4.3-1.1-11.6-1.1-22.5C117.3,28.1,117.5,21.1,117.7,18.2z M194,56.9
			c-1.3,0.3-3.1,0.7-3.5,0.8c-0.2,0.1-0.5-0.1-0.6-0.5c-0.1-0.4-0.3-2.2-0.3-4.6V46c0-4.6,0.3-7.6,0.3-9.6c0-1.9,0-2.5-0.1-3.4
			c-0.1-0.6-0.4-0.9-1.6-0.9c-3.5,0-10.3,1-10.6,1.1c-0.3,0.1-0.3,0.1-0.3,0.4c0,0.5,0.1,1,0.2,1.3c0.1,0.4,0.4,0.5,0.9,0.6
			c2.3,0.6,3.1,0.8,3.4,1.6c0.3,0.7,0.4,2.2,0.4,7.9c0,3.4-0.1,6.9-0.4,9.1c-0.1,1-0.4,1.3-1,1.6c-1.6,1.1-3.6,1.7-5.2,1.7
			c-1.6,0-5.5-0.9-5.4-5.3c0.1-4.6,0.2-10.5,0.4-14.3c0.1-3.2,0.1-4.6,0.1-5.2c-0.1-1-0.3-1.3-0.7-1.3h-0.1c-0.8,0-8.2,1.9-9.7,2.2
			c-0.7,0.2-0.7,0.4-0.7,1c0.2,1,0.5,1.3,0.9,1.5c2.5,1.2,2.6,1.7,2.6,2.8c0.1,4.2-0.1,9.3-0.1,15c0,1.4,0.1,3.4,1,4.9
			c1.7,2.8,4.6,3.6,7.4,3.6c1.5,0,2.8-0.4,4.6-1.2c2-1.1,4.5-2.6,5.8-3.3l-0.1,3.1c0,0.5,0.1,0.7,0.5,1.2c0.5,0.6,0.9,0.5,1.5,0.4
			c1.3-0.4,6.1-1.7,10-2.1c0.4-0.1,0.7-0.2,1.2-2.5C194.8,57.4,194.3,56.8,194,56.9z M243.8,57.9c0.1-12,0.3-17.6,0.5-18.4
			c0.8-0.1,2.2-0.3,3-0.4c0.1-0.8,0.2-2.7,0-3.1c-1.3,0.1-3.7,0.3-7.4,0.3c-3.7,0-7.9-0.3-12.9-0.3c-0.5,0-0.7,0.3-0.7,0.5
			c0.1,0.7,0.1,1.1,0.4,1.5c0.1,0.2,0.7,0.4,1.1,0.6c0.7,0.2,3.7,0.7,4.4,0.8c2.7,0.6,2.8,1.9,2.8,8.5c0,5.5-0.7,8.7-2.1,9.7
			c-1.3,1-3.7,1.7-5.5,1.7c-3.1,0-9.1-1.2-14.2-6.1c-4.9-4.8-6.4-11.2-6.4-16.2c0-9.1,3.8-15,7.3-18.3c3.1-3,6.6-4.2,10.5-4.2
			c7.6,0,12.9,4.3,15.8,9.9c0.4,0.7,0.6,0.8,1,0.8h0.6c1,0,1.1-0.1,1.3-0.2c0.1-0.1,0.1-0.7,0-1.7c-0.4-1.6-1-6.4-1.2-10.9
			c0-0.4-0.1-0.5-0.4-0.6l-1.6-0.3c-0.4-0.1-0.6,0-0.7,0.3l-0.7,1c-0.2,0.3-0.4,0.1-1,0c-2.5-0.7-7.3-1.2-9.9-1.2
			c-2.7,0-7,0.2-11.4,1.3c-5.2,1.3-8.8,3.1-12.3,6.3c-4.3,4-7.3,9.7-7.3,17.4v0.1c0,7.9,3.1,13.9,7.3,17.9c5.2,5,12.9,7.5,22.6,7.5
			c2.9,0,5.2-0.2,7.9-0.4c3.1-0.2,4.3-0.2,5.9-0.2c0.3,0,1.4-0.1,2-0.7C243.4,60.2,243.8,59.7,243.8,57.9z M267.1,31.1L267.1,31.1
			c-1.8,0-5.8,1.1-8.4,2.5c-2.2,1.1-3.9,2.5-5.3,4.1c-2,2.4-3.1,6.1-3.1,9.2c0,3.1,1.1,7,3.1,9.6c2.9,3.9,8.7,5.5,12,5.5
			c3.1,0,7.2-1.4,10.2-3.2c1.4-0.8,6.4-4.7,6.4-12.3C282,36.1,273.7,31.1,267.1,31.1z M271.2,57.7c-0.8,0.9-2,1.3-3.2,1.3
			c-1.8,0-3.7-0.7-5.8-3.1c-1.7-2-3.3-6.3-3.3-11.1c0-4.6,1-8,2.2-9.2c0.9-1,1.9-1.4,3.3-1.4h0.1c2,0,4.1,1.1,5.5,2.5
			c2.8,2.8,3.7,8.7,3.7,12.6C273.7,53.8,272.5,56.4,271.2,57.7z M300.4,62.1c3.1,0,7.2-1.4,10.2-3.2c1.4-0.8,6.4-4.7,6.4-12.3
			c0-10.4-8.2-15.4-14.8-15.4h-0.1c-1.7,0-5.7,1.1-8.3,2.5c-2.2,1.1-3.9,2.5-5.3,4.1c-2,2.4-3.1,6.1-3.1,9.2c0,3.1,1.1,7,3.1,9.6
			C291.4,60.4,297.1,62.1,300.4,62.1z M296.2,35.6c0.9-1,1.9-1.4,3.3-1.4h0.1c2,0,4.1,1.1,5.5,2.5c2.8,2.8,3.7,8.7,3.7,12.6
			c0,4.6-1.1,7.1-2.5,8.5c-0.8,0.9-2,1.3-3.2,1.3c-1.8,0-3.7-0.7-5.8-3.1c-1.7-2-3.3-6.3-3.3-11.1C293.9,40.1,294.9,36.8,296.2,35.6
			z M356,57.9c-0.1-0.3-0.4-0.5-1-0.3c-0.8,0.4-2.1,0.7-2.8,0.7c-0.4,0-1-0.4-1.1-1.3c-0.2-1.5-0.4-4.8-0.4-7.3v-8.4
			c0-8.7,0.4-24,0.4-30.8c0-0.5-0.1-1-0.4-1.2c-0.3-0.1-0.7-0.1-1.2,0.2c-2.8,1.5-6.2,3.1-10.4,4.7c-0.4,0.2-0.4,0.3-0.4,0.7
			l0.1,0.7c0.1,0.4,0.3,0.5,0.7,0.6c3.5,0.6,3.6,1.1,3.7,2c0.1,2,0.2,3.9,0.1,8.5c0,1.6-0.1,3.7-0.1,4.6c0,0.4-0.4,0.7-0.8,0.5
			c-1-0.3-2.9-0.4-4.3-0.4c-3.8,0-9.2,2.7-12.1,5.5c-4,3.7-5.5,8-5.5,11.7v0.1c0,3.6,1.3,7.4,4,10c2.2,2,5,3.4,8.1,3.4
			c1,0,4.5-1.3,10.7-4.5c0,1.3,0.1,2.6,0.2,3.7c0.1,0.8,0.7,1.6,1.6,1.6c1,0,7.4-1.3,10-2c0.7-0.2,1.2-0.3,1.2-0.7
			C356.3,59.3,356.2,58.5,356,57.9z M343.1,54.4c0,0.5-0.6,0.8-1.1,1.1c-1.2,0.7-3.4,1.2-4.8,1.2c-1.3,0-3.2-0.4-4.8-1.9
			c-4-3.7-4.6-8.1-4.6-11.4c0-3.2,1-5.5,2.1-6.5c1.2-1.2,2.5-1.8,4.3-1.8h0.1c3.1,0,5.5,0.7,7.6,2.1c1,0.7,1.1,1.2,1.2,2
			C343.5,41.9,343.4,49.9,343.1,54.4z"/>
	</g>
</g>
<g>
	<path class="st1" d="M111.1,103.6c-3.3-2.9-4.9-8.1-4.9-11.9c0-4.6,1.5-8.7,4.6-12.1c2.5-2.7,6.2-4.8,11.8-4.8c4.1,0,7.4,1,9,1.9
		c0.6,0.3,0.8,0.3,0.9,0l0.4-1.1c0.1-0.3,0.2-0.3,0.8-0.3s0.8,0.1,0.8,0.7c0,0.8,0.8,8.4,1,9.8c0,0.3,0,0.5-0.2,0.6l-1,0.3
		c-0.2,0.1-0.4-0.1-0.5-0.5c-0.5-1.8-1.7-4.1-3.6-6c-1.9-1.9-4.3-3.3-7.7-3.3c-6.5,0-9.3,5.9-9.2,12.5c0,2.8,0.8,8.3,4,11.6
		c2.9,3,5.4,3.3,7,3.3c5.1,0,8.9-2.3,10.5-4.8c0.2-0.4,0.4-0.5,0.7-0.4l0.8,0.7c0.1,0.1,0.2,0.3,0,0.5c-2.6,3.7-6.9,7.4-13.2,7.4
		C117,107.7,113.9,106.1,111.1,103.6z"/>
	<path class="st1" d="M146.9,103.7c0,1.4,0.4,1.8,1.4,1.8h1.8c0.3,0,0.3,0.1,0.3,0.4v0.9c0,0.3,0,0.4-0.2,0.4
		c-0.3,0-2.3-0.1-6.3-0.1c-3.4,0-5.3,0.1-5.6,0.1c-0.2,0-0.3-0.1-0.3-0.4v-0.8c0-0.3,0.1-0.4,0.5-0.4h1.3c0.7,0,1.1-0.3,1.2-1.1
		c0.1-1.2,0.1-2.8,0.1-5v-3.7c0-1.9-0.4-2.7-1.8-3.5l-0.8-0.4c-0.3-0.1-0.4-0.2-0.4-0.4V91c0-0.2,0.1-0.3,0.4-0.4l6.2-2.7
		c0.3-0.1,0.4-0.2,0.7-0.2c0.3,0,0.5,0.3,0.5,0.5l0.4,3.5h0.3c1.4-2.9,3.3-4.3,5.3-4.3c1.3,0,2.4,1,2.4,2.6c0,1.2-1.4,2.5-2.9,2.5
		c-0.6,0-1.2-0.1-1.6-0.4c-0.4-0.2-0.8-0.3-1.1-0.3c-0.4,0-0.9,0.2-1.2,0.8c-0.6,1.2-0.8,2-0.8,2.6V103.7z"/>
	<path class="st1" d="M160.7,96v1.2c0,4.6,2.6,6.9,5.9,6.9c2.2,0,4-1,4.9-2.5c0.1-0.2,0.3-0.3,0.4-0.1l0.8,0.4
		c0.2,0.1,0.3,0.3-0.1,1.1c-0.8,1.6-3.7,4.7-7.9,4.7c-2.9,0-5.2-0.5-6.7-2.1c-2.3-2.5-3-4.2-3.1-7.7c0-1.2,0-3.6,2-6.5
		c1.6-2.4,4.3-3.7,7.8-3.7c7.2,0,7.6,6.9,7.6,7.6c0,0.6-0.4,0.6-1.4,0.6H160.7z M165,94.3c1,0,1.4-0.2,1.4-0.9c0-2-0.8-3.9-2.2-3.9
		c-2.1,0-3.2,1.6-3.5,4.8H165z"/>
	<path class="st1" d="M188.1,79.3c0-1.2-0.5-2-2.9-2.5c-0.3,0-0.3-0.1-0.3-0.3v-0.8c0-0.2,0.1-0.3,0.4-0.4c2.6-0.2,6.1-0.5,7.5-0.8
		c0.6-0.1,0.8-0.2,1.2-0.2c0.3,0,0.4,0.3,0.4,0.8c-0.2,2.2-0.3,8.7-0.3,15v9.8c0,1.6,0,3.4,0.4,4.1c0.4,0.6,0.9,0.6,2,0.5
		c0.5,0,0.7,0.1,0.7,0.3l0.1,0.7c0,0.3,0,0.4-0.3,0.5l-6.7,1.7c-0.3,0.1-0.5,0-0.6-0.4l-0.7-2.2c-1.4,1.6-4.1,2.7-6,2.7
		c-2.3,0-3.2-0.2-5.3-2.1c-1.7-1.6-2.8-3.4-2.8-6.3c0-3.6,0.6-5.9,3.1-8.6c1.7-1.9,3.8-2.9,6.6-2.9c1.5,0,2.8,0.3,3.6,0.6
		L188.1,79.3z M188.3,93.6c0-0.8,0-1.6-0.4-2.1c-0.7-1.2-2.1-2-3.4-2c-0.8,0-1.6,0.3-2.3,1.2c-1.1,1.5-1.4,3-1.4,5.1
		c0,5.3,2.3,8.9,5,8.9c1.2,0,1.7-0.4,2.1-0.9c0.4-0.4,0.4-1.2,0.4-2.1L188.3,93.6z"/>
	<path class="st1" d="M209.7,107.2c-0.4,0-2.4-0.1-6.3-0.1c-2.6,0-4.3,0.1-4.8,0.1c-0.2,0-0.4-0.1-0.4-0.4v-0.9
		c0-0.3,0.1-0.4,0.4-0.4h1.6c0.5,0,0.8-0.2,0.8-0.9c0.1-1.3,0.1-2.7,0.1-4l-0.1-6.2c0-1.2-0.3-2.1-2.1-2.8c-0.5-0.2-0.5-0.4-0.5-0.6
		v-0.5c0-0.1,0.1-0.2,0.5-0.4l6.6-2.1c0.5-0.2,0.9-0.3,1.2-0.3c0.4,0,0.5,0.2,0.4,0.5c-0.1,0.8-0.1,3.6-0.1,7.5v4.8
		c0,1.7,0,3.3,0,3.8c0.1,0.8,0.3,1.2,0.8,1.2h1.6c0.4,0,0.4,0.1,0.4,0.4v0.8C210.1,107.1,210,107.2,209.7,107.2z M203.6,84.3
		c-1.9,0-3.3-1.4-3.3-3.2c0-1.5,1.5-2.9,3.5-2.9c2.2,0,3.3,1.5,3.3,2.8C207.1,82.5,206.1,84.2,203.6,84.3z"/>
	<path class="st1" d="M219.9,100.6c0,3.7,1.4,4.5,2.5,4.5c0.9,0,1.6-0.1,2.3-0.5c0.1-0.1,0.3-0.1,0.4,0.2l0.3,0.7
		c0.1,0.2,0,0.4-0.2,0.6c-0.8,0.5-2.8,1.8-6.2,1.8c-3,0-4.9-2.1-4.9-4.1c0-1.6,0.1-4.9,0.1-6.6l0-5.9h-2.5c-0.4,0-0.7-0.2-0.7-0.6
		c0-0.4,0.3-0.8,1-1.1c1.5-0.7,5.2-4,6.9-5.9c0.3-0.4,0.6-0.4,0.8-0.4c0.4,0,0.6,0.3,0.6,0.7l-0.2,4.7h5.7c0.3,0,0.4,0.2,0.3,0.4
		l-0.4,1.9c0,0.2-0.1,0.4-0.4,0.4H220c-0.1,1.8-0.1,4-0.1,6V100.6z"/>
	<path class="st1" d="M238.6,79.5c0-1.6-0.3-2.3-1.2-2.3h-2.1c-0.3,0-0.3-0.1-0.3-0.4v-1.1c0-0.3,0-0.4,0.4-0.4
		c0.4,0,2.6,0.1,7.3,0.1c3.9,0,6.1-0.1,6.5-0.1c0.4,0,0.4,0.1,0.4,0.4v1.2c0,0.2,0,0.3-0.4,0.3h-1.5c-1.5,0-2.3,0.8-2.4,1.7
		c0,0.5-0.1,3.5-0.1,5.8v2.9c0,2.4,0.2,8,0.2,9.4c0,2,0.4,4.1,1.4,5.3c1.5,1.8,3.6,2.5,5.6,2.5c1.6,0,4.1-0.8,5.3-2
		c1.8-1.6,2.8-4.1,2.8-7.3v-6.9c0-3.7-0.4-8.6-0.6-9.7c-0.2-1.2-0.9-2-1.6-2h-1.4c-0.3,0-0.3-0.1-0.3-0.4v-1.2c0-0.2,0-0.3,0.3-0.3
		c0.4,0,2.5,0.1,5.5,0.1c2.4,0,3.8-0.1,4.2-0.1s0.4,0.2,0.4,0.4v1c0,0.3,0,0.4-0.3,0.4h-1.4c-1.7,0-1.8,1.2-1.9,1.7
		c-0.1,0.6-0.1,6.8-0.1,7.4c0,0.6-0.1,8.4-0.2,10.2c-0.3,3.7-1.5,6.5-3.8,8.5c-2,1.7-5,2.8-7.9,2.8c-2.1,0-4.9-0.3-6.8-1.1
		c-2.1-0.9-4.1-3-5.2-5.9c-0.8-1.9-0.9-4.9-0.9-10.7V79.5z"/>
	<path class="st1" d="M276.5,90.2h0.4c0.5-0.6,1.3-1.2,2.1-1.6c1-0.5,2-0.8,3.4-0.8c1.7,0,3.4,0.2,4.6,1.2c1.9,1.7,2,2.9,2,5.1v4.7
		c0,1.5-0.1,3.6-0.2,5.2c0,1.3,0.7,1.6,1.1,1.6h1.2c0.4,0,0.5,0.1,0.5,0.4v0.8c0,0.3-0.1,0.5-0.4,0.5c-0.3,0-1.7-0.1-5.3-0.1
		c-2.9,0-4.4,0.1-4.7,0.1c-0.3,0-0.4-0.1-0.4-0.5v-0.8c0-0.3,0.1-0.4,0.6-0.4h0.5c0.3,0,0.7-0.2,0.8-1c0.2-1.2,0.3-2.6,0.3-4.6v-4.8
		c0-1.7-0.1-2.9-1.1-3.7c-0.8-0.7-1.4-0.8-2.2-0.8c-0.8,0-1.4,0.2-2.3,0.9c-0.5,0.4-0.9,1.6-0.9,3.4l-0.1,9.1c0,0.8,0.3,1.5,0.7,1.5
		h0.6c0.4,0,0.4,0.1,0.4,0.4v0.8c0,0.3-0.1,0.4-0.3,0.4c-0.3,0-1.5-0.1-4.5-0.1c-3.2,0-4.6,0.1-4.9,0.1c-0.2,0-0.3-0.1-0.3-0.4v-0.9
		c0-0.3,0.1-0.4,0.4-0.4h0.7c0.5,0,1.2-0.1,1.2-0.9v-9.9c0-1.3-0.8-2.1-1.8-2.6l-0.4-0.2c-0.3-0.1-0.3-0.3-0.3-0.5v-0.4
		c0-0.2,0.2-0.4,0.4-0.4l5.7-2.6c0.4-0.1,0.7-0.3,1-0.3c0.3,0,0.5,0.2,0.6,0.5L276.5,90.2z"/>
	<path class="st1" d="M304.4,107.2c-0.4,0-2.4-0.1-6.3-0.1c-2.6,0-4.3,0.1-4.8,0.1c-0.2,0-0.4-0.1-0.4-0.4v-0.9
		c0-0.3,0.1-0.4,0.4-0.4h1.6c0.5,0,0.8-0.2,0.8-0.9c0.1-1.3,0.1-2.7,0.1-4l-0.1-6.2c0-1.2-0.3-2.1-2.1-2.8c-0.5-0.2-0.5-0.4-0.5-0.6
		v-0.5c0-0.1,0.1-0.2,0.5-0.4l6.6-2.1c0.5-0.2,0.9-0.3,1.2-0.3c0.4,0,0.5,0.2,0.4,0.5c-0.1,0.8-0.1,3.6-0.1,7.5v4.8
		c0,1.7,0,3.3,0,3.8c0.1,0.8,0.3,1.2,0.8,1.2h1.6c0.4,0,0.4,0.1,0.4,0.4v0.8C304.8,107.1,304.7,107.2,304.4,107.2z M298.3,84.3
		c-1.9,0-3.3-1.4-3.3-3.2c0-1.5,1.5-2.9,3.5-2.9c2.2,0,3.3,1.5,3.3,2.8C301.8,82.5,300.8,84.2,298.3,84.3z"/>
	<path class="st1" d="M309,104.4c-1.7-1.9-2.4-4.2-2.4-7c0-2,1.1-5.3,3.8-7.4c2.3-1.8,4.5-2.3,6.6-2.3c3.1,0,5.2,0.9,7.2,2.8
		c2.2,2,3.1,4.4,3.1,7.1c0,2.6-1.1,5.1-2.9,7c-2.1,2.2-4.7,3.1-7.8,3.1C313.5,107.7,311.3,107,309,104.4z M320.6,97.3
		c0-5.2-1.8-7.7-3.7-7.7c-1.1,0-1.8,0.3-2.4,1.2c-0.9,1.4-1.5,3.3-1.5,6.9c0,2.6,0.2,4.3,1.1,6.2c0.6,1.2,1.3,1.9,2.9,1.9
		C319.5,105.8,320.6,102.2,320.6,97.3z"/>
	<path class="st1" d="M338,90.2h0.4c0.5-0.6,1.3-1.2,2.1-1.6c1-0.5,2-0.8,3.4-0.8c1.7,0,3.4,0.2,4.6,1.2c1.9,1.7,2,2.9,2,5.1v4.7
		c0,1.5-0.1,3.6-0.2,5.2c0,1.3,0.7,1.6,1.1,1.6h1.2c0.4,0,0.5,0.1,0.5,0.4v0.8c0,0.3-0.1,0.5-0.4,0.5c-0.3,0-1.7-0.1-5.3-0.1
		c-2.9,0-4.4,0.1-4.7,0.1c-0.3,0-0.4-0.1-0.4-0.5v-0.8c0-0.3,0.1-0.4,0.6-0.4h0.5c0.3,0,0.7-0.2,0.8-1c0.2-1.2,0.3-2.6,0.3-4.6v-4.8
		c0-1.7-0.1-2.9-1.1-3.7c-0.8-0.7-1.4-0.8-2.2-0.8c-0.8,0-1.4,0.2-2.3,0.9c-0.5,0.4-0.9,1.6-0.9,3.4l-0.1,9.1c0,0.8,0.3,1.5,0.7,1.5
		h0.6c0.4,0,0.4,0.1,0.4,0.4v0.8c0,0.3-0.1,0.4-0.3,0.4c-0.3,0-1.5-0.1-4.5-0.1c-3.2,0-4.6,0.1-4.9,0.1c-0.2,0-0.3-0.1-0.3-0.4v-0.9
		c0-0.3,0.1-0.4,0.4-0.4h0.7c0.5,0,1.2-0.1,1.2-0.9v-9.9c0-1.3-0.8-2.1-1.8-2.6l-0.4-0.2c-0.3-0.1-0.3-0.3-0.3-0.5v-0.4
		c0-0.2,0.2-0.4,0.4-0.4l5.7-2.6c0.4-0.1,0.7-0.3,1-0.3c0.3,0,0.5,0.2,0.6,0.5L338,90.2z"/>
</g>
</svg>
